# xmcd CD database file
#
# Track frame offsets:
#	150
#	17392
#	32715
#	51490
#	70205
#	87012
#	108425
#	125820
#	144300
#	162012
#	178100
#	193450
#	213072
#	232820
#
# Disc length: 3349 seconds
#
# Revision: 0
# Processed by: cddbd v1.5.1PL0 Copyright (c) Steve Scherf et al.
# Submitted via: CDex 1.51
#
DISCID=bc0d130e
DTITLE=Zezé Di Camargo e Luciano - Vol. 5
DYEAR=2005
DGENRE=Country
TTITLE0=Pra Mudar A Minha Vida
TTITLE1=Quem Sou Eu Sem Ela
TTITLE2=Conflito
TTITLE3=Faz Mais Uma Vez Comigo
TTITLE4=Tristeza Do Jeca
TTITLE5=Chega
TTITLE6=O Que É Que Eu Faço
TTITLE7=Indiferença
TTITLE8=Vem Cuidar De Mim
TTITLE9=Pra Sempre
TTITLE10=Do Jeito Que A Moçada Gosta
TTITLE11=Melhor Que Antes
TTITLE12=Saudade Bandida
TTITLE13=Dois Corações E Uma História
EXTD=YEAR: 2005
EXTT0=
EXTT1=
EXTT2=
EXTT3=
EXTT4=
EXTT5=
EXTT6=
EXTT7=
EXTT8=
EXTT9=
EXTT10=
EXTT11=
EXTT12=
EXTT13=
PLAYORDER=
